<?xml version="1.0" encoding="UTF-8"?>
<svg id="Layer_1" xmlns="http://www.w3.org/2000/svg" viewBox="0 0 598.89 150.45">
  <defs>
    <style>
      .letter { fill: none; stroke: #1ADC38; stroke-width: 2.5; stroke-linejoin: round; }
      .bar { fill: none; stroke: #1ADC38; stroke-width: 2; stroke-linecap: round; }
    </style>
    <filter id="glow">
      <feGaussianBlur stdDeviation="2" result="blur" />
      <feMerge>
        <feMergeNode in="blur" />
        <feMergeNode in="SourceGraphic" />
      </feMerge>
    </filter>
  </defs>
  <g id="FULL_LOGO" filter="url(#glow)">
    <g id="O_Bars">
      <path class="bar" d="M387.02,90.71c-1.74,0-3.15-1.41-3.15-3.15v-43.77c0-1.74,1.41-3.15,3.15-3.15s3.15,1.41,3.15,3.15v43.77c0,1.74-1.41,3.15-3.15,3.15Z"/>
      <path class="bar" d="M366.46,116.94c-1.74,0-3.15-1.41-3.15-3.15v-43.77c0-1.74,1.41-3.15,3.15-3.15s3.15,1.41,3.15,3.15v43.77c0,1.74-1.41,3.15-3.15,3.15Z"/>
      <path class="bar" d="M344.39,102.37c-1.74,0-3.15-1.41-3.15-3.15v-43.77c0-1.74,1.41-3.15,3.15-3.15s3.15,1.41,3.15,3.15v43.77c0,1.74-1.41,3.15-3.15,3.15Z"/>
    </g>
    <g id="NEON">
      <path id="N" class="letter" d="M493.05,27.21v114c0,3.81-2.99,6.8-6.8,6.8-3.54,0-6.8-3.27-6.8-6.8V9.25c0-3.81,3.27-6.8,6.53-6.8,4.08,0,5.99.82,7.34,2.72,18.23,24.21,62.03,78.9,91.96,118.08V9.25c0-3.81,3.26-6.8,6.8-6.8,3.81,0,6.8,2.99,6.8,6.8v131.96c0,3.81-2.99,6.8-6.53,6.8-3.81,0-5.99-.82-7.34-2.72-25.03-33.47-67.48-86.52-91.96-118.08Z"/>
      <path id="O" class="letter" d="M366.24,150.45c-41.63,0-71.01-32.65-71.01-74.27,0-45.44,28.84-76.18,71.01-76.18,38.64,0,69.92,30.74,69.92,75.36s-25.85,75.09-69.92,75.09ZM366.24,136.85c35.91,0,56.32-27.21,56.32-61.49s-24.76-61.76-56.32-61.76c-34.55,0-57.4,25.85-57.4,62.58,0,33.47,23.4,60.67,57.4,60.67Z"/>
      <path id="E" class="letter" d="M172.79,9.25c0-3.54,2.72-6.8,5.99-6.8h76.18c3.81,0,6.8,2.99,6.8,6.8,0,3.54-2.99,6.8-6.8,6.8h-68.56v47.34h56.87c3.81,0,6.8,2.99,6.8,6.8,0,3.54-2.99,6.8-6.8,6.8h-56.87v57.41h69.11c3.81,0,6.8,2.99,6.8,6.8,0,3.54-2.99,6.8-6.8,6.8h-75.91c-3.54,0-6.8-3.27-6.8-6.8V9.25Z"/>
      <path id="N-2" class="letter" d="M13.6,27.21v114c0,3.81-2.99,6.8-6.8,6.8-3.54,0-6.8-3.27-6.8-6.8V9.25C0,5.44,3.27,2.45,6.53,2.45c4.08,0,5.99.82,7.34,2.72,18.23,24.21,62.03,78.9,91.96,118.08V9.25c0-3.81,3.27-6.8,6.8-6.8,3.81,0,6.8,2.99,6.8,6.8v131.96c0,3.81-2.99,6.8-6.53,6.8-3.81,0-5.99-.82-7.35-2.72C80.53,111.82,38.09,58.77,13.6,27.21Z"/>
    </g>
  </g>
</svg>
